<?xml version="1.0" ?><svg enable-background="new 0 0 128 128" id="Layer_1" version="1.1" viewBox="0 0 128 128" xml:space="preserve" xmlns="http://www.w3.org/2000/svg" xmlns:xlink="http://www.w3.org/1999/xlink"><path d="  M66.082756,49.1093483H18.9209881c-2.1254482,0-2.7836552-2.876812-0.8696651-3.8010216l41.7125473-19.6955032  c2.1626892-1.0211601,4.6688232-1.0211601,6.8315125,0L108.30793,45.3083267  c1.9139862,0.9242096,1.2557831,3.8010216-0.8696671,3.8010216H101" fill="none" stroke="#00AEEF" stroke-linecap="round" stroke-linejoin="round" stroke-miterlimit="10" stroke-width="4"/><line fill="none" stroke="#00AEEF" stroke-linecap="round" stroke-linejoin="round" stroke-miterlimit="10" stroke-width="4" x1="77.9170685" x2="75.082756" y1="49.1093483" y2="49.1093483"/><line fill="none" stroke="#00AEEF" stroke-linecap="round" stroke-linejoin="round" stroke-miterlimit="10" stroke-width="4" x1="25" x2="25" y1="92" y2="50"/><line fill="none" stroke="#00AEEF" stroke-linecap="round" stroke-linejoin="round" stroke-miterlimit="10" stroke-width="4" x1="101" x2="101" y1="50" y2="92"/><path d="  M107.6796265,105h-89c-2.1407356,0-3.5925913-2.1777802-2.7692318-4.1538467l2.5-6  C18.8762035,93.7282104,19.968523,93,21.1796265,93h84c1.2111053,0,2.303421,0.7282104,2.7692261,1.8461533l2.5,6  C111.2722168,102.8222198,109.8203583,105,107.6796265,105z" fill="none" stroke="#00AEEF" stroke-linecap="round" stroke-linejoin="round" stroke-miterlimit="10" stroke-width="4"/><path d="  M37,92.1093445V63.1093407c0-3.3137054,2.6862869-5.9999924,5.9999924-5.9999924h0.0000153  C46.3137131,57.1093483,49,59.7956352,49,63.1093407v29.0000038" fill="none" stroke="#00AEEF" stroke-linecap="round" stroke-linejoin="round" stroke-miterlimit="10" stroke-width="4"/><path d="  M77,92.1093445V63.1093407c0-3.3137054,2.6862869-5.9999924,5.9999924-5.9999924h0.0000153  C86.3137131,57.1093483,89,59.7956352,89,63.1093407v29.0000038" fill="none" stroke="#00AEEF" stroke-linecap="round" stroke-linejoin="round" stroke-miterlimit="10" stroke-width="4"/><path d="  M57,92.1093445V63.1093407c0-3.3137054,2.6862869-5.9999924,5.9999924-5.9999924h0.0000153  C66.3137131,57.1093483,69,59.7956352,69,63.1093407v29.0000038" fill="none" stroke="#00AEEF" stroke-linecap="round" stroke-linejoin="round" stroke-miterlimit="10" stroke-width="4"/></svg>