<?xml version="1.0" ?><!DOCTYPE svg  PUBLIC '-//W3C//DTD SVG 1.1//EN'  'http://www.w3.org/Graphics/SVG/1.1/DTD/svg11.dtd'><svg height="128px" id="Layer_1" style="enable-background:new 0 0 128 128;" version="1.1" viewBox="0 0 128 128" width="128px" xml:space="preserve" xmlns="http://www.w3.org/2000/svg" xmlns:xlink="http://www.w3.org/1999/xlink"><g><path d="M62.615,82.313c-14.459,0-26.222-11.763-26.222-26.222s11.763-26.221,26.222-26.221   s26.222,11.763,26.222,26.221S77.074,82.313,62.615,82.313z M62.615,32.871c-12.805,0-23.222,10.417-23.222,23.221   c0,12.805,10.417,23.222,23.222,23.222s23.222-10.417,23.222-23.222C85.837,43.288,75.42,32.871,62.615,32.871z" style="fill:#EE3E36;"/></g><g><path d="M62.615,82.313c-14.459,0-26.222-11.763-26.222-26.222s11.763-26.221,26.222-26.221   s26.222,11.763,26.222,26.221S77.074,82.313,62.615,82.313z M62.615,32.871c-12.805,0-23.222,10.417-23.222,23.221   c0,12.805,10.417,23.222,23.222,23.222s23.222-10.417,23.222-23.222C85.837,43.288,75.42,32.871,62.615,32.871z" style="fill:#EE3E36;"/></g><g><path d="M62.615,75.088c-10.475,0-18.996-8.521-18.996-18.996c0-0.829,0.672-1.5,1.5-1.5s1.5,0.671,1.5,1.5   c0,8.82,7.176,15.996,15.996,15.996c0.828,0,1.5,0.671,1.5,1.5S63.443,75.088,62.615,75.088z" style="fill:#EE3E36;"/></g><g><path d="M101.708,103.085c-1.866,0-3.621-0.727-4.94-2.046L81.5,85.771c-5.646,3.603-12.148,5.5-18.885,5.5   c-19.398,0-35.18-15.782-35.18-35.18s15.781-35.179,35.18-35.179s35.18,15.781,35.18,35.179c0,6.709-1.883,13.189-5.457,18.819   l15.279,15.279c2.724,2.724,2.724,7.156,0,9.88l-0.969,0.969C105.328,102.359,103.573,103.085,101.708,103.085z M81.693,82.344   c0.387,0,0.771,0.149,1.061,0.439l16.135,16.135c0.753,0.753,1.754,1.167,2.819,1.167c1.064,0,2.066-0.415,2.819-1.168l0.969-0.969   c1.554-1.554,1.554-4.083,0-5.638L89.352,76.167c-0.511-0.511-0.585-1.313-0.177-1.909c3.677-5.364,5.62-11.646,5.62-18.167   c0-17.744-14.436-32.179-32.18-32.179s-32.18,14.436-32.18,32.179c0,17.744,14.436,32.18,32.18,32.18   c6.546,0,12.849-1.958,18.228-5.663C81.101,82.431,81.397,82.344,81.693,82.344z" style="fill:#313335;"/></g><rect height="128" id="_x3C_Slice_x3E__9_" style="fill:none;" width="128" x="1"/></svg>